<?xml version="1.0" encoding="iso-8859-1"?>
<!-- Generator: Adobe Illustrator 16.0.0, SVG Export Plug-In . SVG Version: 6.00 Build 0)  -->
<!DOCTYPE svg PUBLIC "-//W3C//DTD SVG 1.1//EN" "http://www.w3.org/Graphics/SVG/1.1/DTD/svg11.dtd">
<svg version="1.1" id="Capa_1" xmlns="http://www.w3.org/2000/svg" xmlns:xlink="http://www.w3.org/1999/xlink" x="0px" y="0px"
	 width="10.999px" height="20.633px" viewBox="0 0 10.999 20.633" style="enable-background:new 0 0 10.999 20.633;"
	 xml:space="preserve">
<path d="M10.804,9.844L1.154,0.195C1.025,0.064,0.857,0,0.683,0C0.512,0,0.34,0.064,0.21,0.195L0.197,0.207
	C0.071,0.334,0,0.506,0,0.682v4.682c0,0.178,0.071,0.348,0.197,0.471l4.481,4.482l-4.481,4.479C0.071,14.922,0,15.09,0,15.271v4.68
	c0,0.18,0.071,0.354,0.197,0.475l0.013,0.01c0.124,0.127,0.294,0.197,0.473,0.197s0.348-0.07,0.474-0.197l9.647-9.646
	C11.064,10.531,11.064,10.104,10.804,9.844z"/>
<g>
</g>
<g>
</g>
<g>
</g>
<g>
</g>
<g>
</g>
<g>
</g>
<g>
</g>
<g>
</g>
<g>
</g>
<g>
</g>
<g>
</g>
<g>
</g>
<g>
</g>
<g>
</g>
<g>
</g>
</svg>
